<?xml version="1.0" encoding="UTF-8" standalone="no"?>
<!-- Generator: Adobe Illustrator 19.0.0, SVG Export Plug-In . SVG Version: 6.00 Build 0)  -->

<svg
   xmlns:dc="http://purl.org/dc/elements/1.1/"
   xmlns:cc="http://creativecommons.org/ns#"
   xmlns:rdf="http://www.w3.org/1999/02/22-rdf-syntax-ns#"
   xmlns:svg="http://www.w3.org/2000/svg"
   xmlns="http://www.w3.org/2000/svg"
   xmlns:sodipodi="http://sodipodi.sourceforge.net/DTD/sodipodi-0.dtd"
   xmlns:inkscape="http://www.inkscape.org/namespaces/inkscape"
   version="1.1"
   id="Capa_1"
   x="0px"
   y="0px"
   viewBox="0 0 60 60"
   style="enable-background:new 0 0 60 60;"
   xml:space="preserve"
   inkscape:version="0.91 r13725"
   sodipodi:docname="cloud-delete.svg"><metadata
     id="metadata49"><rdf:RDF><cc:Work
         rdf:about=""><dc:format>image/svg+xml</dc:format><dc:type
           rdf:resource="http://purl.org/dc/dcmitype/StillImage" /></cc:Work></rdf:RDF></metadata><defs
     id="defs47" /><sodipodi:namedview
     pagecolor="#ffffff"
     bordercolor="#666666"
     borderopacity="1"
     objecttolerance="10"
     gridtolerance="10"
     guidetolerance="10"
     inkscape:pageopacity="0"
     inkscape:pageshadow="2"
     inkscape:window-width="1920"
     inkscape:window-height="1018"
     id="namedview45"
     showgrid="false"
     inkscape:zoom="3.9333333"
     inkscape:cx="-28.601695"
     inkscape:cy="30"
     inkscape:window-x="-8"
     inkscape:window-y="-8"
     inkscape:window-maximized="1"
     inkscape:current-layer="Capa_1" /><path
     style="fill:#4eabda;stroke:#0083bf;stroke-width:2;stroke-linecap:round;stroke-miterlimit:10;fill-opacity:1;stroke-opacity:1"
     d="M50.003,21.5  c-0.115-8.699-7.193-16-15.919-16c-5.559,0-10.779,3.005-13.661,7.336C19.157,11.993,17.636,11.5,16,11.5c-4.418,0-8,3.582-8,8  c0,0.153,0.014,0.302,0.023,0.454C8.013,20.136,8,20.32,8,20.5c-3.988,1.912-7,6.457-7,11.155C1,38.17,6.33,43.5,12.845,43.5h24.507  c0.138,0,0.272-0.016,0.408-0.021c0.137,0.005,0.271,0.021,0.408,0.021h9.803C54.037,43.5,59,38.537,59,32.472  C59,27.101,55.106,22.461,50.003,21.5z"
     id="path3" /><path
     style="fill:#7fabe9;stroke:#0083bf;stroke-width:2;stroke-linecap:round;stroke-miterlimit:10;fill-opacity:1;stroke-opacity:1"
     d="M50.003,21.5  c0,0-2.535-0.375-5.003,0"
     id="path5" /><path
     style="fill:#3aabda;stroke:#0083bf;stroke-width:2;stroke-linecap:round;stroke-miterlimit:10;fill-opacity:1;stroke-opacity:1"
     d="M8,19.5  c0-4.418,3.582-8,8-8s8,3.582,8,8"
     id="path7" /><line
     style="fill:none;stroke:#ff0300;stroke-width:8;stroke-linecap:round;stroke-miterlimit:10;stroke-dasharray:none;stroke-opacity:1"
     x1="38"
     y1="49.601696"
     x2="22"
     y2="33.601696"
     id="line11" /><line
     style="fill:none;stroke:#ff0300;stroke-width:8;stroke-linecap:round;stroke-miterlimit:10;stroke-dasharray:none;stroke-opacity:1"
     x1="38"
     y1="33.601696"
     x2="22"
     y2="49.601696"
     id="line13" /><g
     id="g15" /><g
     id="g17" /><g
     id="g19" /><g
     id="g21" /><g
     id="g23" /><g
     id="g25" /><g
     id="g27" /><g
     id="g29" /><g
     id="g31" /><g
     id="g33" /><g
     id="g35" /><g
     id="g37" /><g
     id="g39" /><g
     id="g41" /><g
     id="g43" /></svg>