<?xml version="1.0"?>
<svg xmlns="http://www.w3.org/2000/svg" viewBox="0 0 64 64" width="512" height="512"><g id="Setting"><path d="M51,41V35H46.751a19.874,19.874,0,0,0-3.663-8.846l3-3-4.243-4.243-3,3A19.869,19.869,0,0,0,30,18.249V14H24v4.249a19.869,19.869,0,0,0-8.846,3.663l-3-3L7.908,23.151l3,3A19.874,19.874,0,0,0,7.249,35H3v6H7.249a19.869,19.869,0,0,0,3.663,8.846l-3,3,4.243,4.243,3-3A19.874,19.874,0,0,0,24,57.751V62h6V57.751a19.874,19.874,0,0,0,8.846-3.663l3,3,4.243-4.243-3-3A19.869,19.869,0,0,0,46.751,41Z" style="fill:#898890"/><circle cx="27" cy="38" r="8" style="fill:#57565c"/><circle cx="27" cy="38" r="5" style="fill:#e0e0e2"/><path d="M61,13V9H58.706a6.929,6.929,0,0,0-.548-1.33l1.62-1.62L56.95,3.222l-1.62,1.62A6.929,6.929,0,0,0,54,4.294V2H50V4.294a6.929,6.929,0,0,0-1.33.548l-1.62-1.62L44.222,6.05l1.62,1.62A6.929,6.929,0,0,0,45.294,9H43v4h2.294a6.929,6.929,0,0,0,.548,1.33l-1.62,1.62,2.828,2.828,1.62-1.62a6.929,6.929,0,0,0,1.33.548V20h4V17.706a6.929,6.929,0,0,0,1.33-.548l1.62,1.62,2.828-2.828-1.62-1.62A6.929,6.929,0,0,0,58.706,13Z" style="fill:#898890"/><circle cx="52" cy="11" r="2" style="fill:#e0e0e2"/><path d="M51,34H47.593a21.015,21.015,0,0,0-3.2-7.734L46.8,23.858a1,1,0,0,0,0-1.414L42.556,18.2a1,1,0,0,0-1.414,0l-2.408,2.408A21.015,21.015,0,0,0,31,17.407V14a1,1,0,0,0-1-1H24a1,1,0,0,0-1,1v3.407a21.015,21.015,0,0,0-7.734,3.2L12.858,18.2a1,1,0,0,0-1.414,0L7.2,22.444a1,1,0,0,0,0,1.414l2.408,2.408A21.015,21.015,0,0,0,6.407,34H3a1,1,0,0,0-1,1v6a1,1,0,0,0,1,1H6.407a21.015,21.015,0,0,0,3.2,7.734L7.2,52.142a1,1,0,0,0,0,1.414L11.444,57.8a1,1,0,0,0,1.414,0l2.408-2.408A21.015,21.015,0,0,0,23,58.593V62a1,1,0,0,0,1,1h6a1,1,0,0,0,1-1V58.593a21.015,21.015,0,0,0,7.734-3.2L41.142,57.8a1,1,0,0,0,1.414,0L46.8,53.556a1,1,0,0,0,0-1.414l-2.408-2.408A21.015,21.015,0,0,0,47.593,42H51a1,1,0,0,0,1-1V35A1,1,0,0,0,51,34Zm-1,6H46.751a1,1,0,0,0-.989.851,18.982,18.982,0,0,1-3.478,8.4,1,1,0,0,0,.1,1.3l2.3,2.3-2.829,2.829-2.3-2.3a1,1,0,0,0-1.3-.1,18.982,18.982,0,0,1-8.4,3.478,1,1,0,0,0-.851.989V61H25V57.751a1,1,0,0,0-.851-.989,18.982,18.982,0,0,1-8.4-3.478,1,1,0,0,0-1.3.1l-2.3,2.3L9.322,52.849l2.3-2.3a1,1,0,0,0,.1-1.3,18.982,18.982,0,0,1-3.478-8.4A1,1,0,0,0,7.249,40H4V36H7.249a1,1,0,0,0,.989-.851,18.982,18.982,0,0,1,3.478-8.4,1,1,0,0,0-.1-1.3l-2.3-2.3,2.829-2.829,2.3,2.3a1,1,0,0,0,1.3.1,18.982,18.982,0,0,1,8.4-3.478A1,1,0,0,0,25,18.249V15h4v3.249a1,1,0,0,0,.851.989,18.982,18.982,0,0,1,8.4,3.478,1,1,0,0,0,1.3-.1l2.3-2.3,2.829,2.829-2.3,2.3a1,1,0,0,0-.1,1.3,18.982,18.982,0,0,1,3.478,8.4,1,1,0,0,0,.989.851H50Z"/><path d="M27,32a6,6,0,1,0,6,6A6.006,6.006,0,0,0,27,32Zm0,10a4,4,0,1,1,4-4A4,4,0,0,1,27,42Z"/><path d="M12.436,31.29a1,1,0,0,0-1.294.571,16.985,16.985,0,0,0-.856,3.018,1,1,0,0,0,.8,1.166,1.05,1.05,0,0,0,.184.017,1,1,0,0,0,.982-.818,14.848,14.848,0,0,1,.754-2.66A1,1,0,0,0,12.436,31.29Z"/><path d="M27.684,23.015h.045a1,1,0,0,0,.043-2C27.517,21.006,27.259,21,27,21a16.9,16.9,0,0,0-14.512,8.14,1,1,0,0,0,1.706,1.044A14.915,14.915,0,0,1,27,23Q27.344,23,27.684,23.015Z"/><path d="M27,29a9,9,0,1,0,9,9A9.011,9.011,0,0,0,27,29Zm0,16a7,7,0,1,1,7-7A7.008,7.008,0,0,1,27,45Z"/><path d="M61,8H59.416l-.051-.123,1.12-1.12a1,1,0,0,0,0-1.414L57.657,2.515a1.029,1.029,0,0,0-1.414,0l-1.12,1.12L55,3.584V2a1,1,0,0,0-1-1H50a1,1,0,0,0-1,1V3.584l-.123.051-1.12-1.12a1,1,0,0,0-1.414,0L43.515,5.343a1,1,0,0,0,0,1.414l1.12,1.12L44.584,8H43a1,1,0,0,0-1,1v4a1,1,0,0,0,1,1h1.584l.051.123-1.12,1.12a1,1,0,0,0,0,1.414l2.828,2.828a1.029,1.029,0,0,0,1.414,0l1.12-1.12.123.051V20a1,1,0,0,0,1,1h4a1,1,0,0,0,1-1V18.416l.123-.051,1.12,1.12a1,1,0,0,0,1.414,0l2.828-2.828a1,1,0,0,0,0-1.414l-1.12-1.12L59.416,14H61a1,1,0,0,0,1-1V9A1,1,0,0,0,61,8Zm-1,4H58.706a1,1,0,0,0-.958.715,5.987,5.987,0,0,1-.469,1.139,1,1,0,0,0,.172,1.183l.913.913L56.95,17.364l-.913-.913a1,1,0,0,0-1.183-.172,5.987,5.987,0,0,1-1.139.469,1,1,0,0,0-.715.958V19H51V17.706a1,1,0,0,0-.715-.958,5.987,5.987,0,0,1-1.139-.469,1,1,0,0,0-1.183.172l-.913.913L45.636,15.95l.913-.913a1,1,0,0,0,.172-1.183,5.987,5.987,0,0,1-.469-1.139A1,1,0,0,0,45.294,12H44V10h1.294a1,1,0,0,0,.958-.715,5.987,5.987,0,0,1,.469-1.139,1,1,0,0,0-.172-1.183l-.913-.913L47.05,4.636l.913.913a1,1,0,0,0,1.183.172,5.987,5.987,0,0,1,1.139-.469A1,1,0,0,0,51,4.294V3h2V4.294a1,1,0,0,0,.715.958,5.987,5.987,0,0,1,1.139.469,1,1,0,0,0,1.183-.172l.913-.913L58.364,6.05l-.913.913a1,1,0,0,0-.172,1.183,5.987,5.987,0,0,1,.469,1.139,1,1,0,0,0,.958.715H60Z"/><path d="M52,8a3,3,0,1,0,3,3A3,3,0,0,0,52,8Zm0,4a1,1,0,1,1,1-1A1,1,0,0,1,52,12Z"/></g></svg>
